/vscmnt/brussel_pixiu_data/_data_brussel/112/vsc11236/PredSimResults/SUBJ10mtu3D/worker5.mot
version=1
nRows=9
nColumns=50
inDegrees=yes
endheader
                time	         pelvis_tilt	         pelvis_list	     pelvis_rotation	           pelvis_tx	           pelvis_ty	           pelvis_tz	       hip_flexion_r	     hip_adduction_r	      hip_rotation_r	        knee_angle_r	       ankle_angle_r	         mtp_angle_r	       hip_flexion_l	     hip_adduction_l	      hip_rotation_l	        knee_angle_l	       ankle_angle_l	         mtp_angle_l	    lumbar_extension	      lumbar_bending	     lumbar_rotation	 ercspn_r/activation	 intobl_r/activation	 extobl_r/activation	    abd_r/activation	    add_r/activation	hamstrings_r/activation	bifemsh_r/activation	glut_max_r/activation	iliopsoas_r/activation	rect_fem_r/activation	  vasti_r/activation	gastroc_r/activation	 soleus_r/activation	tib_ant_r/activation	 ercspn_l/activation	 intobl_l/activation	 extobl_l/activation	    abd_l/activation	    add_l/activation	hamstrings_l/activation	bifemsh_l/activation	glut_max_l/activation	iliopsoas_l/activation	rect_fem_l/activation	  vasti_l/activation	gastroc_l/activation	 soleus_l/activation	tib_ant_l/activation	
          0.54989027	         -5.00935567	         -0.05363211	         -6.81320517	          0.66536722	          0.82167553	          0.01236441	        -16.21210961	          0.47007482	          1.64573860	         -5.33627038	          6.34245452	         28.10765916	         31.78774297	         -2.39581935	         -4.87225947	         -7.98814772	          1.90270834	          0.27065113	         -7.60703895	          1.28102440	          5.26889733	          0.11352046	          0.01000002	          0.01000004	          0.05821066	          0.01000054	          0.01450180	          0.22299872	          0.01185098	          0.32866349	          0.01000042	          0.01000005	          0.28984472	          0.20750293	          0.02120194	          0.11157672	          0.15362052	          0.01000013	          0.01000002	          0.15308783	          0.09823652	          0.27142225	          0.05995148	          0.05648862	          0.01000022	          0.01000001	          0.02134571	          0.01400190	          0.35025826	
          0.56088807	         -5.01882632	         -0.06974983	         -6.95293659	          0.68109062	          0.82055077	          0.01217074	        -16.27988613	          0.35649779	          1.38749232	         -7.10748891	          5.58605840	         29.74195193	         31.48272880	         -2.27479730	         -4.48601410	         -9.40470334	          1.58859537	          0.25680212	         -7.41037589	          0.85967909	          5.58057143	          0.12885248	          0.01000001	          0.01000009	          0.04919363	          0.01000289	          0.01280701	          0.18845549	          0.01001526	          0.27775246	          0.01000012	          0.01000003	          0.24494698	          0.19321746	          0.01791769	          0.09429315	          0.12982420	          0.01000007	          0.02333578	          0.12937404	          0.08674955	          0.22937817	          0.10019254	          0.04773834	          0.01000004	          0.01000000	          0.01803920	          0.01183297	          0.40990528	
          0.57188588	         -5.02292550	         -0.07355414	         -7.04953967	          0.69694001	          0.81971320	          0.01185773	        -16.16536401	          0.22774926	          1.09670169	         -9.20458129	          4.72386045	         31.25876571	         31.09136768	         -2.15280489	         -4.17441045	        -10.64271377	          1.14960967	          0.24537959	         -7.21159127	          0.42694094	          5.86597291	          0.14728302	          0.01000001	          0.01000008	          0.04157337	          0.01000008	          0.01083060	          0.15926311	          0.01000003	          0.23472771	          0.01000031	          0.01000003	          0.20700386	          0.17430586	          0.01514218	          0.11624642	          0.10971399	          0.01000009	          0.08003358	          0.14466764	          0.07331181	          0.19384676	          0.12148007	          0.04034351	          0.01000008	          0.01000003	          0.01524487	          0.01000004	          0.45274607	
          0.58288368	         -5.02155484	         -0.07728980	         -7.10533860	          0.71275152	          0.81927125	          0.01143776	        -15.81765124	          0.09765800	          0.76682817	        -11.69001243	          3.75447210	         32.53813438	         30.70813947	         -2.02744526	         -3.95223425	        -11.90128285	          0.78686339	          0.22920712	         -7.02733964	         -0.00351030	          6.12139777	          0.18166066	          0.01000001	          0.01000005	          0.03513351	          0.01006729	          0.02562167	          0.13459273	          0.01000097	          0.19836762	          0.01000017	          0.01000004	          0.17493825	          0.14730534	          0.01279661	          0.11975344	          0.09271892	          0.01000007	          0.12133969	          0.18982431	          0.06391829	          0.16381927	          0.13441400	          0.03409417	          0.01000007	          0.01000004	          0.01288341	          0.01000007	          0.47499096	
          0.59388149	         -5.01483337	         -0.07613214	         -7.12694498	          0.72841773	          0.81930007	          0.01092121	        -15.19697080	         -0.04218837	          0.39326736	        -14.61033849	          2.70310472	         33.39746363	         30.37886580	         -1.89355572	         -3.79441027	        -13.27441762	          0.62016048	          0.21356469	         -6.86296683	         -0.43374726	          6.34974328	          0.20831883	          0.01000001	          0.01000005	          0.02969121	          0.07582230	          0.02916493	          0.11374389	          0.01000005	          0.16763982	          0.01000010	          0.01000001	          0.14783971	          0.12448725	          0.01081438	          0.12082096	          0.07835644	          0.01000007	          0.15164653	          0.22361619	          0.05768384	          0.13844313	          0.14252885	          0.02881287	          0.01000008	          0.02768634	          0.01088775	          0.01000009	          0.47609650	
          0.60487929	         -5.00418742	         -0.07419471	         -7.11530150	          0.74385994	          0.81987849	          0.01032613	        -14.26977517	         -0.18987728	         -0.04446249	        -17.99468714	          1.55715351	         33.67093475	         30.07539673	         -1.75399923	         -3.68412101	        -14.69977580	          0.67120867	          0.19843730	         -6.72158290	         -0.85700137	          6.55078603	          0.22278274	          0.01000002	          0.01000005	          0.02509194	          0.14986031	          0.02982615	          0.09612462	          0.01000003	          0.14167186	          0.01000008	          0.01000001	          0.12493883	          0.10520375	          0.01000001	          0.12083205	          0.06621876	          0.01000007	          0.16956934	          0.25048396	          0.05688163	          0.11699786	          0.13703478	          0.02434966	          0.01000007	          0.05037340	          0.01000007	          0.01000008	          0.46086113	
          0.61587710	         -4.99150452	         -0.07727479	         -7.07113029	          0.75905374	          0.82103018	          0.00967673	        -13.02594067	         -0.34766539	         -0.55208023	        -21.81659888	          0.21098857	         33.33278451	         29.72978208	         -1.60831120	         -3.59463091	        -16.05138942	          0.93987093	          0.18956372	         -6.60101450	         -1.26657797	          6.72327182	          0.22608726	          0.01000003	          0.01000005	          0.02120512	          0.20371355	          0.03734627	          0.08123467	          0.01000002	          0.11972642	          0.01000007	          0.01000000	          0.10558538	          0.08890732	          0.01000001	          0.11689867	          0.05596125	          0.01000007	          0.17899775	          0.26479861	          0.05862828	          0.09887453	          0.12492020	          0.02057782	          0.01000007	          0.06549959	          0.01000007	          0.01000005	          0.42849376	
          0.62687490	         -4.97856281	         -0.08974134	         -6.99509836	          0.77399537	          0.82270853	          0.00899295	        -11.48268668	         -0.52200867	         -1.11945369	        -25.98053536	         -1.48813310	         32.44405174	         29.28782444	         -1.45519029	         -3.49560966	        -17.22675930	          1.40684310	          0.20684873	         -6.49856939	         -1.65794059	          6.86579830	          0.22662413	          0.01000002	          0.01000005	          0.01792037	          0.25875253	          0.03755366	          0.06865137	          0.01000001	          0.10118041	          0.01000005	          0.01000000	          0.08922984	          0.07513527	          0.01000002	          0.10620993	          0.04729266	          0.01000007	          0.18565016	          0.26791234	          0.06393218	          0.08355857	          0.10556982	          0.01739025	          0.01000006	          0.08608635	          0.01000006	          0.01000004	          0.38265731	
          0.63787271	         -4.96734571	         -0.11722135	         -6.88613699	          0.78866631	          0.82484448	          0.00828972	         -9.67203440	         -0.71485580	         -1.72435790	        -30.38135947	         -3.51923972	         30.84790812	         28.70478811	         -1.29639040	         -3.36552768	        -18.13073849	          2.01203925	          0.28192006	         -6.41556468	         -2.02476715	          6.97694033	          0.22308661	          0.01315405	          0.01000006	          0.01514445	          0.29760409	          0.09440573	          0.05801736	          0.01000015	          0.08550723	          0.01000005	          0.01000000	          0.07540783	          0.06349656	          0.06250862	          0.08975770	          0.03996687	          0.01000011	          0.18832649	          0.25677241	          0.06758599	          0.07061511	          0.08921674	          0.01469644	          0.01000005	          0.09505083	          0.01000012	          0.01000011	          0.33477359	
